HIERARCHY
ROOT hip
{
  OFFSET 0 0 0
  CHANNELS 6 Xposition Yposition Zposition Zrotation Yrotation Xrotation
  JOINT abdomen
  {
    OFFSET 0 20.6881 -0.73152
    CHANNELS 3 Zrotation Xrotation Yrotation
    JOINT chest
    {
      OFFSET 0 11.7043 -0.48768
      CHANNELS 3 Zrotation Xrotation Yrotation
      JOINT neck
      {
        OFFSET 0 22.1894 -2.19456
        CHANNELS 3 Zrotation Xrotation Yrotation
        JOINT head
        {
          OFFSET -0.24384 7.07133 1.2192
          CHANNELS 3 Zrotation Xrotation Yrotation
          JOINT leftEye
          {
            OFFSET 4.14528 8.04674 8.04672
            CHANNELS 3 Zrotation Xrotation Yrotation
            End Site
            {
              OFFSET 1 0 0
            }
          }
          JOINT rightEye
          {
            OFFSET -3.6576 8.04674 8.04672
            CHANNELS 3 Zrotation Xrotation Yrotation
            End Site
            {
              OFFSET 1 0 0
            }
          }
        }
      }
      JOINT rCollar
      {
        OFFSET -2.68224 19.2634 -4.8768
        CHANNELS 3 Zrotation Xrotation Yrotation
        JOINT rShldr
        {
          OFFSET -8.77824 -1.95073 1.46304
          CHANNELS 3 Zrotation Xrotation Yrotation
          JOINT rForeArm
          {
            OFFSET -28.1742 -1.7115 0.48768
            CHANNELS 3 Zrotation Xrotation Yrotation
            JOINT rHand
            {
              OFFSET -22.5879 0.773209 7.07136
              CHANNELS 3 Zrotation Xrotation Yrotation
              JOINT rThumb1
              {
                OFFSET -1.2192 -0.487915 3.41376
                CHANNELS 3 Zrotation Xrotation Yrotation
                JOINT rThumb2
                {
                  OFFSET -3.37035 -0.52449 3.41376
                  CHANNELS 3 Zrotation Xrotation Yrotation
                  End Site
                  {
                    OFFSET -1.78271 -1.18214 1.43049
                  }
                }
              }
              JOINT rIndex1
              {
                OFFSET -7.75947 0.938293 5.60832
                CHANNELS 3 Zrotation Xrotation Yrotation
                JOINT rIndex2
                {
                  OFFSET -2.54057 -0.884171 1.56538
                  CHANNELS 3 Zrotation Xrotation Yrotation
                  End Site
                  {
                    OFFSET -1.62519 -0.234802 1.16502
                  }
                }
              }
              JOINT rMid1
              {
                OFFSET -8.24714 1.18213 3.41376
                CHANNELS 3 Zrotation Xrotation Yrotation
                JOINT rMid2
                {
                  OFFSET -3.10165 -0.590103 1.0647
                  CHANNELS 3 Zrotation Xrotation Yrotation
                  End Site
                  {
                    OFFSET -2.48547 -0.328903 0.83742
                  }
                }
              }
              JOINT rRing1
              {
                OFFSET -8.82822 0.546677 1.51678
                CHANNELS 3 Zrotation Xrotation Yrotation
                JOINT rRing2
                {
                  OFFSET -2.60934 -0.819778 -0.0198488
                  CHANNELS 3 Zrotation Xrotation Yrotation
                  End Site
                  {
                    OFFSET -2.33842 -0.294052 0.168128
                  }
                }
              }
              JOINT rPinky1
              {
                OFFSET -8.27202 -0.0477905 -0.4584
                CHANNELS 3 Zrotation Xrotation Yrotation
                JOINT rPinky2
                {
                  OFFSET -1.82734 -0.647385 -0.700984
                  CHANNELS 3 Zrotation Xrotation Yrotation
                  End Site
                  {
                    OFFSET -1.69225 -0.51767 -0.607171
                  }
                }
              }
            }
          }
        }
      }
      JOINT lCollar
      {
        OFFSET 2.68224 19.2634 -4.8768
        CHANNELS 3 Zrotation Xrotation Yrotation
        JOINT lShldr
        {
          OFFSET 8.77824 -1.95073 1.46304
          CHANNELS 3 Zrotation Xrotation Yrotation
          JOINT lForeArm
          {
            OFFSET 28.1742 -1.7115 0.48768
            CHANNELS 3 Zrotation Xrotation Yrotation
            JOINT lHand
            {
              OFFSET 22.5879 0.773209 7.07136
              CHANNELS 3 Zrotation Xrotation Yrotation
              JOINT lThumb1
              {
                OFFSET 1.2192 -0.487915 3.41376
                CHANNELS 3 Zrotation Xrotation Yrotation
                JOINT lThumb2
                {
                  OFFSET 3.37035 -0.52449 3.41376
                  CHANNELS 3 Zrotation Xrotation Yrotation
                  End Site
                  {
                    OFFSET 1.78271 -1.18214 1.43049
                  }
                }
              }
              JOINT lIndex1
              {
                OFFSET 7.75947 0.938293 5.60832
                CHANNELS 3 Zrotation Xrotation Yrotation
                JOINT lIndex2
                {
                  OFFSET 2.54057 -0.884171 1.56538
                  CHANNELS 3 Zrotation Xrotation Yrotation
                  End Site
                  {
                    OFFSET 1.62519 -0.234802 1.16502
                  }
                }
              }
              JOINT lMid1
              {
                OFFSET 8.24714 1.18213 3.41376
                CHANNELS 3 Zrotation Xrotation Yrotation
                JOINT lMid2
                {
                  OFFSET 3.10165 -0.590103 1.0647
                  CHANNELS 3 Zrotation Xrotation Yrotation
                  End Site
                  {
                    OFFSET 2.48547 -0.328903 0.83742
                  }
                }
              }
              JOINT lRing1
              {
                OFFSET 8.82822 0.546677 1.51678
                CHANNELS 3 Zrotation Xrotation Yrotation
                JOINT lRing2
                {
                  OFFSET 2.60934 -0.819778 -0.0198488
                  CHANNELS 3 Zrotation Xrotation Yrotation
                  End Site
                  {
                    OFFSET 2.33842 -0.294052 0.168128
                  }
                }
              }
              JOINT lPinky1
              {
                OFFSET 8.27202 -0.0477905 -0.4584
                CHANNELS 3 Zrotation Xrotation Yrotation
                JOINT lPinky2
                {
                  OFFSET 1.82734 -0.647385 -0.700984
                  CHANNELS 3 Zrotation Xrotation Yrotation
                  End Site
                  {
                    OFFSET 1.69225 -0.51767 -0.607171
                  }
                }
              }
            }
          }
        }
      }
    }
  }
  JOINT rButtock
  {
    OFFSET -8.77824 4.35084 1.2192
    CHANNELS 3 Zrotation Xrotation Yrotation
    JOINT rThigh
    {
      OFFSET 0 -1.70687 -2.19456
      CHANNELS 3 Zrotation Xrotation Yrotation
      JOINT rShin
      {
        OFFSET 0 -36.8199 0.73152
        CHANNELS 3 Zrotation Xrotation Yrotation
        JOINT rFoot
        {
          OFFSET 0.73152 -45.1104 -5.12064
          CHANNELS 3 Zrotation Xrotation Yrotation
          End Site
          {
            OFFSET -1.1221 -3.69964 12.103
          }
        }
      }
    }
  }
  JOINT lButtock
  {
    OFFSET 8.77824 4.35084 1.2192
    CHANNELS 3 Zrotation Xrotation Yrotation
    JOINT lThigh
    {
      OFFSET 0 -1.70687 -2.19456
      CHANNELS 3 Zrotation Xrotation Yrotation
      JOINT lShin
      {
        OFFSET 0 -36.8199 0.73152
        CHANNELS 3 Zrotation Xrotation Yrotation
        JOINT lFoot
        {
          OFFSET -0.73152 -45.1104 -5.12064
          CHANNELS 3 Zrotation Xrotation Yrotation
          End Site
          {
            OFFSET 1.1221 -3.69964 12.103
          }
        }
      }
    }
  }
}
MOTION
Frames:	4
Frame Time:	0.03333
52.21328232437372 67.59463548660278 -58.25463058426976 0.1237506480427604 17.193681301449995 3.6890304207271383 -9.702636324519014 8.609573830885195 -3.622316974895862 5.305513789234308 -7.170710812404676 -1.1723161667812405 -10.057983746278097 19.90534324157322 -16.15305246252707 17.12684619287413 -15.3320039601363 -29.23112643995772 -0.00806605320338838 -0.08026507475311062 -0.23219009303961496 0.1496251121660612 -0.2862957033541354 -0.1448376431457715 0.05391922085537316 0.07781247655212069 0.23246922366108633 64.74386857654945 37.77223701592364 -4.214768864163237 -19.171169622783136 -12.4875238689603 36.33607021461799 0.13526426591013915 3.0810643970903135 1.4393332343161918 0.2887320531754201 -0.3824093783026144 -0.35280917938920386 0.11355568357201723 0.1933524367997324 -0.10019796798958791 0.2882587957711323 -0.6417257277134937 0.3384037501406916 7.644356256814733 5.562355795896644 0.4345095276829427 0.19669045163273813 0.09503391809023515 0.40900995023162573 2.9588449920821054 0.8312276186882049 -0.03035681578676134 -0.12911773598736237 -0.0097455060068446 -0.18511861707485558 10.577715892112817 0.9109006014176401 -0.10795898387742646 0.19005844467036154 -0.26507409215949423 -0.04735562250640247 1.989534213708103 -1.143954019696174 -0.07825705249797976 0.06679092578967376 0.06271661122805536 0.20873143480923592 -71.2980019908778 41.94263440991754 -1.7916706770854152 24.442793294016308 -23.205531846625178 -56.01077162829822 1.0396641814243668 -13.237282271889063 2.138714509804467 0.3318089356927798 0.059872584490685526 -0.2031247032743017 0.18987136152012665 -0.18570209132078921 0.2837081288757584 -0.05779033728918367 0.2599360023150728 -0.23130809150218418 -7.400658522323264 5.323191172579947 -0.3416571613414391 0.4110752286819083 0.1230199778841277 0.34379423681928617 -2.8699989585756374 0.7268229478609767 -0.4337939319652517 0.0761012206803416 -0.15383667084131453 0.31871831785949506 -10.091584008126329 0.9088202752068423 0.08270547999921503 0.09119940720150768 -0.028912724365192884 0.08224060024883104 -2.2102568993789427 -0.7680658712253351 0.42183451085239737 -0.21819140689226224 0.20717681972111754 -0.18562706596162487 -35.84639687754685 -58.463475483776875 -34.79981382121497 -1.6441181004456296 71.28890417890334 1.8782057587748917 3.239895537040494 -7.934415607844957 15.379014444646206 -0.11962313271080996 0.2631534216205455 -0.3751279697605577 8.441388106536447 9.265955863897066 0.8416741795803279 -0.15116558662816354 35.16005848860895 -2.2711352292249125 20.535578456668638 -20.352495235966444 38.20594719803029
52.29491703212261 67.62421131134033 -58.443968929350376 0.27093097937278016 16.941973462609393 3.8113001983804753 -9.732368991749727 8.715606541334118 -4.0617790300572985 5.496070517548963 -7.174638171177433 -1.3176438092988942 -10.072597789780987 20.212513924021618 -16.390719139981417 17.308396036107652 -15.64258632207512 -29.69810647351149 0.006311068112665337 -0.09626628698774643 -0.22902366002907934 0.1625721626246435 -0.26405650069486813 -0.153043048216484 0.023553267022554284 0.08088179281039518 0.24429996507719468 65.11413313145584 37.93318700862041 -4.429472872514826 -18.75526745139001 -11.886398920107478 35.25727940125491 0.10664726739166668 3.279168484437833 1.48799662460524 0.3106371101738857 -0.37174190347952385 -0.38045885236647325 0.10658835701007531 0.19643242522858503 -0.11046673051987896 0.2813747655005528 -0.5963211914321876 0.28476595442346414 7.693490076382866 5.571013914443282 0.45320012690327105 0.15693875066326393 0.11637601809070358 0.4472084234951567 2.9412322820901697 0.8144693226727555 -0.05047428421338765 -0.13116316420036964 0.004215827543484589 -0.16700100669286785 10.600858280568113 0.918340598414488 -0.13708216344642038 0.19412400805210583 -0.21863798387010472 -0.026077662251108684 1.944482712829522 -1.1497988473567067 -0.049100469035076276 0.09891095757871653 -0.006932748729268723 0.22123260198106331 -72.33778900898551 40.89397497607797 -0.8622917992810989 23.872023413382315 -21.898402686666696 -53.77425350533422 0.9614094234430612 -11.40886112164416 1.784182868764377 0.3493019039308287 0.08746665545924281 -0.20569658966192886 0.1905142530757541 -0.20448681908561678 0.32181578196766936 -0.029962439063259218 0.2477794395312137 -0.24752210681814818 -7.389202587537859 5.318338750061476 -0.3215661598978466 0.4359280459157633 0.15820612428027153 0.3043625942454505 -2.831479679864527 0.7078802719715926 -0.4341295717299343 0.08643385615154285 -0.14985445711178555 0.33914266455109593 -10.08489896047618 0.9326759915435812 0.10447542731816128 0.056050186515564246 0.002136461828038832 0.07250843445520912 -2.255803162085526 -0.7533845930478043 0.4398577792464743 -0.18365914438744138 0.21917639487577215 -0.180392259571339 -35.90591514597434 -58.753642410286524 -34.740650722624316 -1.7182346175635537 71.42938067956298 1.884057096459477 3.177720325025868 -7.992323659175618 15.110103066833634 -0.0867712568243709 0.24720407613491946 -0.360903673927183 8.213618373189446 9.345944209267085 1.112131954909673 -0.2725847922864224 35.10322789961986 -2.1515036121384927 20.672612541986602 -20.334180083707057 38.26345739084179
52.39233896136284 67.66769886016846 -58.57507372274995 0.3827757539185621 16.688182416071935 3.941727783223746 -9.78341611805911 8.768949464978272 -4.552831211567134 5.692501635436652 -7.181516171671635 -1.4634731505554266 -10.06570442136115 20.508800700027603 -16.636950874654964 17.476507482149177 -15.975621223363063 -30.137741844723116 0.009903107285857355 -0.10616141682609663 -0.2153231409874668 0.1745510337683765 -0.2410424450907746 -0.155998332332131 0.0006798172658278316 0.08560401484781274 0.25218349748327035 65.4659561756032 38.061249640463565 -4.6244888605838534 -18.365668338490607 -11.358611419920376 34.30339567233844 0.075582926716214 3.4204146620395806 1.5224327308531518 0.3304307849451711 -0.3570474985321819 -0.3957781129011656 0.10457206382274639 0.18494724869579704 -0.11665776339396661 0.2742725427025031 -0.5503702400172806 0.2286246809320154 7.7346940463246145 5.579162330123107 0.46006638800983796 0.1153582665435188 0.1237558240454908 0.46660874873935815 2.9205923041920374 0.8085743358105056 -0.06296520610146003 -0.1309337125329395 0.01742487978976034 -0.13659289778626532 10.597019714254566 0.9182823283631313 -0.15894869390909885 0.1993485691586367 -0.17283580251305702 -0.006601164389405761 1.9232485084735986 -1.1484163743800138 -0.02637365490209353 0.1310098584700146 -0.0785716147257706 0.22739215195194545 -73.25127216896136 39.829380710904765 -0.031907708955390586 23.296043805958895 -20.639059237688915 -51.57602200776274 0.9057282272252364 -9.549934639018685 1.442077476258656 0.3590056817507128 0.10734218577886258 -0.20157350328076834 0.19256779213840075 -0.21695714368447336 0.35364649121233865 0.008491099077089446 0.22409116955084588 -0.2545452488322138 -7.378682388668747 5.309119702229252 -0.31195010732011486 0.44736207607105555 0.17883350901712158 0.2546954863135276 -2.785516775618573 0.6923465008082795 -0.42910319283103965 0.08361021325997726 -0.15533472342536875 0.3608979376354972 -10.068738732899929 0.949520518697302 0.11406949522450201 0.028410545378638272 0.03412202426779698 0.057921818430706415 -2.2907643391258827 -0.7329962649319046 0.45642002748840316 -0.14693108278616718 0.22477362817889182 -0.1788890843454073 -35.96774543343588 -59.050468771236936 -34.63878528134275 -1.79027561094744 71.51455996870222 1.8976538686628568 3.127316944045759 -8.022849482123698 14.877231182176633 -0.05237735901109567 0.22672375390863622 -0.3429456124953385 7.964864591164874 9.408189430720704 1.379994044911002 -0.3794785334575913 35.00608211905477 -2.012377994830622 20.787848078568473 -20.282367976210633 38.30849565822886
52.49928683042526 67.71488189697266 -58.653550036251545 0.46345352150792957 16.43456212426373 4.079106793094797 -9.852588858878413 8.77610835700209 -5.08333968836484 5.898968435649206 -7.191039162921926 -1.6108989418087438 -10.042172712123165 20.79597600368079 -16.885615864220327 17.63634244646394 -16.332613013164828 -30.550018893214258 0.0052562307727214925 -0.1113409413727877 -0.1947706748880753 0.1840052962401435 -0.21855223297950935 -0.1564299682711641 -0.01534871572548803 0.09029891612855026 0.2565616487412485 65.80040321850204 38.15279466590925 -4.800970703453228 -18.005370737130555 -10.907286179944272 33.48171025480757 0.04543361794613146 3.5119041921982554 1.5442778102529682 0.34655952961821573 -0.3369774145429225 -0.4019378763154593 0.10504585483556314 0.16131660843655118 -0.12073143762535031 0.26515093178765686 -0.5043430893044456 0.1720385913708696 7.7687681525465155 5.5876753071498815 0.45706921562467173 0.07424735792921204 0.1207522483579777 0.4705986464317034 2.8971750006226484 0.8114295683269824 -0.06851067937727569 -0.13056851085575538 0.02996846883963587 -0.09735143329213221 10.572372976634574 0.9125366451672696 -0.17293057138779097 0.2040262348838905 -0.1294683701517073 0.012432224949892583 1.9238265132321108 -1.1408144805554954 -0.007649118179326702 0.16077624975975327 -0.14596754586551938 0.22660817430127492 -74.0405756596372 38.75395376570792 0.679938661768158 22.71344403768244 -19.428918763944612 -49.42864126856199 0.8751805796883245 -7.679480504621524 1.1163950601688188 0.3622267562746085 0.12054664899178973 -0.1912126399183879 0.19398857820746918 -0.22237188287070675 0.38091698196896656 0.0534098381536783 0.19106304276730876 -0.2537695954745942 -7.36955725593761 5.29822811182402 -0.3091121637199746 0.44638861403177005 0.1888268228247907 0.1982942387467953 -2.7350929040709535 0.6809721014060927 -0.4165286011256346 0.07140002281896297 -0.164915344396781 0.37898091682395885 -10.046106901085093 0.9605585312828657 0.11228254698289743 0.0080437750473065 0.06223081402333821 0.0411284109740549 -2.316433043800437 -0.7105719001131066 0.47248719373721193 -0.10903014963835488 0.22347888044435127 -0.17832847522493733 -36.03644689120245 -59.353845283601395 -34.51171302692924 -1.8520851943980587 71.56261034951326 1.9177305693978746 3.0884027950232573 -8.031867039375406 14.684553253237867 -0.020531708727617 0.2023047470685696 -0.3216262442182015 7.706391449951374 9.44811359396672 1.645477948420697 -0.47903878589428217 34.88524924244807 -1.8602099178592006 20.88567858559786 -20.20870950865392 38.34801513276655
